<?xml version="1.0" encoding="utf-8"?>
<!-- Generator: Adobe Illustrator 16.0.0, SVG Export Plug-In . SVG Version: 6.00 Build 0)  -->
<!DOCTYPE svg PUBLIC "-//W3C//DTD SVG 1.1//EN" "http://www.w3.org/Graphics/SVG/1.1/DTD/svg11.dtd">
<svg version="1.1" id="图层_1" xmlns="http://www.w3.org/2000/svg" xmlns:xlink="http://www.w3.org/1999/xlink" x="0px" y="0px"
	 width="154.118px" height="52.941px" viewBox="0 0 154.118 52.941" enable-background="new 0 0 154.118 52.941"
	 xml:space="preserve">
<rect x="133.255" y="17.048" fill="#00485F" width="10.175" height="8.629"/>
<path fill="#00485F" d="M133.255,42.89c2.883-0.254,5.427-1.355,7.27-2.988c1.802-1.611,2.905-3.732,2.905-6.063v-5.641h-10.175
	V42.89z"/>
<path fill="#00485F" d="M120.556,17.048v16.791c0,2.33,1.103,4.451,2.906,6.064c1.822,1.631,4.387,2.732,7.291,2.986V17.048H120.556
	z"/>
<polygon fill="#00485F" points="70.697,28.208 74.33,28.208 74.33,18.364 78.273,18.364 78.273,16.524 66.803,16.524 66.803,18.364 
	70.697,18.364 "/>
<path fill="#00485F" d="M40.66,28.208c4.35,0,4.35-2.604,4.35-3.729v-7.955h-3.607v8.197c0,0.836-0.168,1.625-1.173,1.625h-2.964
	c-0.979,0-1.146-0.789-1.146-1.625v-8.197h-3.608v7.955c0,1.125,0,3.729,4.35,3.729H40.66z"/>
<rect x="61.663" y="16.524" fill="#00485F" width="3.515" height="11.684"/>
<path fill="#00485F" d="M100.847,16.524h-8.166v11.684h8.166c4.325,0,4.348-2.602,4.348-3.727v-4.23
	C105.194,19.13,105.172,16.524,100.847,16.524 M101.564,24.722c0,0.836-0.168,1.625-1.146,1.625h-4.134v-7.982h4.134
	c0.979,0,1.146,0.813,1.146,1.648V24.722z"/>
<polygon fill="#00485F" points="90.483,28.208 90.483,26.347 83.721,26.347 83.721,23.286 89.767,23.286 89.767,21.423 
	83.721,21.423 83.721,18.364 90.172,18.364 90.172,16.524 80.087,16.524 80.087,28.208 "/>
<polygon fill-rule="evenodd" clip-rule="evenodd" fill="#00485F" points="51.748,16.524 56.455,24.099 56.455,16.524 59.252,16.524 
	59.252,28.208 54.927,28.208 50.1,20.421 50.1,28.208 47.303,28.208 47.303,16.524 "/>
<path fill="#00485F" d="M63.019,33.454c-4.344,0-4.344,2.604-4.344,3.729v4.238c0,1.123,0,3.752,4.344,3.752h7.908v-7.025h-5.996
	v1.865h2.389v3.295h-3.871c-1.004,0-1.146-0.811-1.146-1.648v-4.717c0-0.834,0.143-1.648,1.146-1.648h7.479v-1.84H63.019z"/>
<path fill="#00485F" d="M98.14,33.454c-4.344,0-4.344,2.604-4.344,3.729v4.238c0,1.123,0,3.752,4.344,3.752h7.907v-7.025h-5.996
	v1.865h2.388v3.295h-3.87c-1.003,0-1.146-0.811-1.146-1.648v-4.717c0-0.834,0.144-1.648,1.146-1.648h7.479v-1.84H98.14z"/>
<polygon fill="#00485F" points="48.831,33.464 44.387,45.173 47.135,45.173 50.408,36.476 53.777,45.173 58.126,45.173 
	53.682,33.464 "/>
<polygon fill-rule="evenodd" clip-rule="evenodd" fill="#00485F" points="27.66,33.464 32.031,33.464 35.258,40.919 38.771,33.464 
	43.071,33.464 43.071,45.173 39.535,45.173 39.535,37.384 35.879,45.173 33.419,45.173 30.072,37.36 30.072,45.173 27.66,45.173 "/>
<polygon fill-rule="evenodd" clip-rule="evenodd" fill="#00485F" points="84.12,33.464 88.848,41.063 88.848,33.464 91.645,33.464 
	91.645,45.173 87.319,45.173 82.469,37.36 82.469,45.173 79.696,45.173 79.696,33.464 "/>
<rect x="21.733" y="33.464" fill="#00485F" width="3.513" height="11.709"/>
<rect x="73.483" y="33.464" fill="#00485F" width="3.489" height="11.709"/>
</svg>
