<?xml version="1.0" encoding="utf-8"?>
<!-- Generator: Adobe Illustrator 16.0.0, SVG Export Plug-In . SVG Version: 6.00 Build 0)  -->
<!DOCTYPE svg PUBLIC "-//W3C//DTD SVG 1.1//EN" "http://www.w3.org/Graphics/SVG/1.1/DTD/svg11.dtd">
<svg version="1.1" id="图层_1" xmlns="http://www.w3.org/2000/svg" xmlns:xlink="http://www.w3.org/1999/xlink" x="0px" y="0px"
	 width="548.667px" height="436px" viewBox="0 0 548.667 436" enable-background="new 0 0 548.667 436" xml:space="preserve">
<text transform="matrix(1 0 0 1 222.9731 69.4526)" font-family="'ArialUnicodeMS'" font-size="8.52">电缆4  高压电源</text>
<line fill="none" stroke="#000000" stroke-width="0" stroke-miterlimit="10" x1="222.854" y1="71.374" x2="326.894" y2="71.374"/>
<line fill="none" stroke="#000000" stroke-width="0" stroke-miterlimit="10" x1="222.854" y1="87.933" x2="326.894" y2="87.933"/>
<line fill="none" stroke="#000000" stroke-width="0" stroke-miterlimit="10" x1="222.854" y1="104.493" x2="326.894" y2="104.493"/>
<line fill="none" stroke="#000000" stroke-width="0" stroke-miterlimit="10" x1="222.854" y1="121.053" x2="326.894" y2="121.053"/>
<line fill="none" stroke="#000000" stroke-width="0" stroke-miterlimit="10" x1="222.854" y1="178.293" x2="326.894" y2="178.293"/>
<line fill="none" stroke="#000000" stroke-width="0" stroke-miterlimit="10" x1="222.854" y1="272.493" x2="326.894" y2="272.493"/>
<line fill="none" stroke="#000000" stroke-width="0" stroke-miterlimit="10" x1="222.854" y1="389.133" x2="486.974" y2="389.133"/>
<line fill="none" stroke="#000000" stroke-width="0" stroke-miterlimit="10" x1="384.733" y1="144.453" x2="486.974" y2="144.453"/>
<text transform="matrix(1 0 0 1 183.7334 212.6123)" font-family="'ArialUnicodeMS'" font-size="8.52">PSC</text>
<text transform="matrix(1 0 0 1 340.9355 142.7739)" font-family="'ArialUnicodeMS'" font-size="8.52">CT机架</text>
<text transform="matrix(1 0 0 1 344.6592 33.8115)" font-family="'ArialUnicodeMS'" font-size="8.52">检查床</text>
<text transform="matrix(1 0 0 1 503.0547 259.0547)" font-family="'ArialUnicodeMS'" font-size="8.52">控制台</text>
<text transform="matrix(1 0 0 1 222.9766 86.1328)" font-family="'ArialUnicodeMS'" font-size="8.52">电缆5  主驱动电源</text>
<text transform="matrix(1 0 0 1 222.9766 101.7329)" font-family="'ArialUnicodeMS'" font-size="8.52">电缆6  机架辅助电源</text>
<text transform="matrix(1 0 0 1 222.9766 119.0117)" font-family="'ArialUnicodeMS'" font-size="8.52">电缆7  检查床电源</text>
<text transform="matrix(1 0 0 1 223.3345 175.0479)" font-family="'ArialUnicodeMS'" font-size="8.52">电缆8 光纤</text>
<text transform="matrix(1 0 0 1 264.8525 175.0479)" font-family="'ArialUnicodeMS'" font-size="8.52">（15米）</text>
<text transform="matrix(1 0 0 1 221.5366 386.6074)" font-family="'ArialUnicodeMS'" font-size="8.52">电缆14 控制台保护接地</text>
<text transform="matrix(1 0 0 1 384.9756 126.4497)" font-family="'ArialUnicodeMS'" font-size="8.52">电缆15  光纤（25米）</text>
<text transform="matrix(1 0 0 1 384.9756 143.3701)" font-family="'ArialUnicodeMS'" font-size="8.52">电缆16  以太网（25米）</text>
<text transform="matrix(1 0 0 1 223.3345 281.7266)" font-family="'ArialUnicodeMS'" font-size="8.52">有3种规格可选配分别是：</text>
<text transform="matrix(1 0 0 1 223.3345 292.0439)" font-family="'ArialUnicodeMS'" font-size="8.52">6m、10m、15m</text>
<line fill="none" stroke="#000000" stroke-width="0" stroke-miterlimit="10" x1="384.733" y1="127.894" x2="486.974" y2="127.894"/>
<text transform="matrix(1 0 0 1 339.373 279.9326)" font-family="'ArialUnicodeMS'" font-size="8.52">PET机架</text>
<text transform="matrix(1 0 0 1 386.7705 270.5693)" font-family="'ArialUnicodeMS'" font-size="8.52">电缆18  以太网（25米）</text>
<text transform="matrix(1 0 0 1 221.5332 370.5254)" font-family="'ArialUnicodeMS'" font-size="8.52">电缆13 控制台电源</text>
<rect x="164.893" y="6.813" fill="none" stroke="#000000" stroke-width="0" stroke-miterlimit="10" width="57.96" height="425.28"/>
<text transform="matrix(1 0 0 1 18.8535 98.7324)" font-family="'ArialUnicodeMS'" font-size="8.52">配电箱</text>
<rect x="7.453" y="9.693" fill="none" stroke="#000000" stroke-width="0" stroke-miterlimit="10" width="57.84" height="197.52"/>
<text transform="matrix(1 0 0 1 65.1733 91.8926)" font-family="'ArialUnicodeMS'" font-size="8.52">电缆1  电源线</text>
<line fill="none" stroke="#000000" stroke-width="0" stroke-miterlimit="10" x1="65.293" y1="94.053" x2="164.893" y2="94.053"/>
<text transform="matrix(1 0 0 1 223.6934 270.6924)" font-family="'ArialUnicodeMS'" font-size="8.52">电缆12 PET电源</text>
<line fill="none" stroke="#000000" stroke-width="0" stroke-miterlimit="10" x1="384.733" y1="272.493" x2="486.733" y2="272.493"/>
<line fill="none" stroke="#000000" stroke-width="0" stroke-miterlimit="10" x1="222.854" y1="373.653" x2="486.974" y2="373.653"/>
<line fill="none" stroke="#000000" stroke-width="0" stroke-miterlimit="10" x1="384.733" y1="161.013" x2="486.974" y2="161.013"/>
<text transform="matrix(1 0 0 1 384.9727 159.4526)" font-family="'ArialUnicodeMS'" font-size="8.52">电缆17  </text>
<text transform="matrix(1 0 0 1 416.5313 159.4526)" font-family="'ArialUnicodeMS'" font-size="8.52">ESTOP（25米）</text>
<rect x="326.893" y="61.173" fill="none" stroke="#000000" stroke-width="0" stroke-miterlimit="10" width="57.841" height="288.48"/>
<line fill="none" stroke="#000000" stroke-width="0" stroke-miterlimit="10" x1="326.894" y1="237.934" x2="384.733" y2="237.934"/>
<rect x="336.373" y="6.573" fill="none" stroke="#000000" stroke-width="0" stroke-miterlimit="10" width="39" height="54.6"/>
<rect x="486.973" y="8.253" fill="none" stroke="#000000" stroke-width="0" stroke-miterlimit="10" width="57.36" height="424.32"/>
<line fill="none" stroke="#000000" stroke-width="0" stroke-miterlimit="10" x1="384.733" y1="289.054" x2="486.974" y2="289.054"/>
<text transform="matrix(1 0 0 1 386.7725 286.1729)" font-family="'ArialUnicodeMS'" font-size="8.52">电缆19  光纤（28米）</text>
<text transform="matrix(1 0 0 1 65.7734 104.4922)" font-family="'ArialUnicodeMS'" font-size="8.52">电缆1和电缆4是根据场地</text>
<text transform="matrix(1 0 0 1 66.3696 115.7729)" font-family="'ArialUnicodeMS'" font-size="8.52">实际情况由一根20米或</text>
<text transform="matrix(1 0 0 1 66.7275 127.1729)" font-family="'ArialUnicodeMS'" font-size="8.52">25米的线缆剪切制作而成</text>
<text transform="matrix(1 0 0 1 63.1235 138.4531)" font-family="'ArialUnicodeMS'" font-size="8.52">，20米与25米可选配。</text>
<text transform="matrix(1 0 0 1 313.6885 370.4102)" font-family="'ArialUnicodeMS'" font-size="8.52">     线缆长度 25m</text>
<text transform="matrix(1 0 0 1 313.6885 386.4873)" font-family="'ArialUnicodeMS'" font-size="8.52">     线缆长度 25m</text>
<text transform="matrix(1 0 0 1 3.4922 225.9277)" font-family="'ArialUnicodeMS'" font-size="8.52">注：</text>
<text transform="matrix(1 0 0 1 3.6113 237.209)" font-family="'ArialUnicodeMS'" font-size="8.52">各线缆长度的连接起点和终点均是各子系</text>
<text transform="matrix(1 0 0 1 3.6113 248.6084)" font-family="'ArialUnicodeMS'" font-size="8.52">统的接线端子，并非各子系统出线口。</text>
<text transform="matrix(1 0 0 1 54.8506 378.2061)" font-family="'ArialUnicodeMS'" font-size="8.52">至放线指示灯</text>
<line fill="none" stroke="#000000" stroke-width="0" stroke-miterlimit="10" x1="164.893" y1="375.094" x2="108.373" y2="375.094"/>
<line fill="none" stroke="#000000" stroke-width="0" stroke-miterlimit="10" x1="108.374" y1="375.094" x2="120.733" y2="369.333"/>
<line fill="none" stroke="#000000" stroke-width="0" stroke-miterlimit="10" x1="108.374" y1="375.094" x2="120.733" y2="380.733"/>
<text transform="matrix(1 0 0 1 16.9336 364.5322)" font-family="'ArialUnicodeMS'" font-size="8.52">电缆2 放线指示灯输入控制线（25米）</text>
<line fill="none" stroke="#000000" stroke-width="0" stroke-miterlimit="10" x1="222.854" y1="192.813" x2="326.894" y2="192.813"/>
<text transform="matrix(1 0 0 1 223.3335 189.5723)" font-family="'ArialUnicodeMS'" font-size="8.52">电缆9 PSC控制线</text>
<text transform="matrix(1 0 0 1 291.6133 189.5723)" font-family="'ArialUnicodeMS'" font-size="8.52">（25米）</text>
<text transform="matrix(1 0 0 1 224.2964 131.6108)" font-family="'ArialUnicodeMS'" font-size="8.52">以上线缆长度有3种规格</text>
<text transform="matrix(1 0 0 1 224.0576 142.772)" font-family="'ArialUnicodeMS'" font-size="8.52">可选配分别是：</text>
<text transform="matrix(1 0 0 1 224.5347 153.0898)" font-family="'ArialUnicodeMS'" font-size="8.52">6m、10m、15m</text>
<text transform="matrix(1 0 0 1 54.1348 414.8066)" font-family="'ArialUnicodeMS'" font-size="8.52">至门联锁机构</text>
<line fill="none" stroke="#000000" stroke-width="0" stroke-miterlimit="10" x1="164.173" y1="411.573" x2="107.653" y2="411.573"/>
<line fill="none" stroke="#000000" stroke-width="0" stroke-miterlimit="10" x1="107.653" y1="411.573" x2="119.894" y2="405.813"/>
<line fill="none" stroke="#000000" stroke-width="0" stroke-miterlimit="10" x1="107.653" y1="411.573" x2="119.894" y2="417.213"/>
<text transform="matrix(1 0 0 1 16.0933 401.0127)" font-family="'ArialUnicodeMS'" font-size="8.52">电缆3 门联锁控制线（25米）</text>
<line fill="none" stroke="#000000" stroke-width="0" stroke-miterlimit="10" x1="222.854" y1="405.453" x2="486.974" y2="405.453"/>
<text transform="matrix(1 0 0 1 221.5337 403.0527)" font-family="'ArialUnicodeMS'" font-size="8.52">电缆20 开关机控制线</text>
<text transform="matrix(1 0 0 1 312.9707 402.209)" font-family="'ArialUnicodeMS'" font-size="8.52">     线缆长度 30m</text>
</svg>
