<?xml version="1.0" encoding="utf-8"?>
<!-- Generator: Adobe Illustrator 16.0.0, SVG Export Plug-In . SVG Version: 6.00 Build 0)  -->
<!DOCTYPE svg PUBLIC "-//W3C//DTD SVG 1.1//EN" "http://www.w3.org/Graphics/SVG/1.1/DTD/svg11.dtd">
<svg version="1.1" id="图层_1" xmlns="http://www.w3.org/2000/svg" xmlns:xlink="http://www.w3.org/1999/xlink" x="0px" y="0px"
	 width="842px" height="595px" viewBox="0 0 842 595" enable-background="new 0 0 842 595" xml:space="preserve">
<path fill="none" stroke="#000000" stroke-width="0.24" stroke-miterlimit="2" d="M546.96,229.96h118.08 M359.76,512.68h305.28
	 M359.76,377.8H480 M359.76,248.44H480 M359.76,229.24H480 M359.76,210.28H480 M359.76,191.08H480 M359.76,171.88H480"/>
<text transform="matrix(1 0 0 1 314.3999 308.6797)" font-family="'ArialUnicodeMS'" font-size="9.84">P</text>
<text transform="matrix(1 0 0 1 321.1108 308.6797)"><tspan x="0" y="0" font-family="'ArialUnicodeMS'" font-size="9.84">S</tspan><tspan x="6.435" y="0" font-family="'ArialUnicodeMS'" font-size="9.84">C</tspan></text>
<text transform="matrix(1 0 0 1 496.0762 228.041)" font-family="'ArialUnicodeMS'" font-size="9.84">C</text>
<text transform="matrix(1 0 0 1 503.043 228.041)" font-family="'ArialUnicodeMS'" font-size="9.84">T</text>
<text transform="matrix(1 0 0 1 509.0352 228.041)" font-family="'ArialUnicodeMS'" font-size="9.84">机架</text>
<text transform="matrix(1 0 0 1 500.3955 102.0396)" font-family="'ArialUnicodeMS'" font-size="9.84">检查床</text>
<text transform="matrix(1 0 0 1 683.5176 362.4355)" font-family="'ArialUnicodeMS'" font-size="9.84">控制台</text>
<text transform="matrix(1 0 0 1 358.3159 509.7998)" font-family="'ArialUnicodeMS'" font-size="9.84">电</text>
<text transform="matrix(1 0 0 1 368.3921 509.7998)" font-family="'ArialUnicodeMS'" font-size="9.84">缆</text>
<text transform="matrix(1 0 0 1 378.2319 509.7998)"><tspan x="0" y="0" font-family="'ArialUnicodeMS'" font-size="9.84">1</tspan><tspan x="5.286" y="0" font-family="'ArialUnicodeMS'" font-size="9.84">1</tspan></text>
<text transform="matrix(1 0 0 1 388.8003 509.7998)" font-family="'ArialUnicodeMS'" font-size="9.84"> </text>
<text transform="matrix(1 0 0 1 391.6733 509.7998)" font-family="'ArialUnicodeMS'" font-size="9.84">H</text>
<text transform="matrix(1 0 0 1 398.6401 509.7998)" font-family="'ArialUnicodeMS'" font-size="9.84">O</text>
<text transform="matrix(1 0 0 1 406.0986 509.7998)" font-family="'ArialUnicodeMS'" font-size="9.84">S</text>
<text transform="matrix(1 0 0 1 412.5933 509.7998)" font-family="'ArialUnicodeMS'" font-size="9.84">T</text>
<text transform="matrix(1 0 0 1 418.7925 509.7998)" font-family="'ArialUnicodeMS'" font-size="9.84">保护接地</text>
<text transform="matrix(1 0 0 1 546.9482 209.0791)" font-family="'ArialUnicodeMS'" font-size="9.84">电</text>
<text transform="matrix(1 0 0 1 557.0244 209.0791)" font-family="'ArialUnicodeMS'" font-size="9.84">缆</text>
<text transform="matrix(1 0 0 1 566.8652 209.0791)"><tspan x="0" y="0" font-family="'ArialUnicodeMS'" font-size="9.84">1</tspan><tspan x="5.286" y="0" font-family="'ArialUnicodeMS'" font-size="9.84">2</tspan></text>
<text transform="matrix(1 0 0 1 577.4326 209.0791)" font-family="'ArialUnicodeMS'" font-size="9.84"> </text>
<text transform="matrix(1 0 0 1 580.3066 209.0791)" font-family="'ArialUnicodeMS'" font-size="9.84"> </text>
<text transform="matrix(1 0 0 1 582.9629 209.0791)" font-family="'ArialUnicodeMS'" font-size="9.84">光纤</text>
<text transform="matrix(1 0 0 1 602.6426 209.0791)" font-family="'ArialUnicodeMS'" font-size="9.84">（</text>
<text transform="matrix(1 0 0 1 612.7188 209.0791)"><tspan x="0" y="0" font-family="'ArialUnicodeMS'" font-size="9.84">2</tspan><tspan x="5.286" y="0" font-family="'ArialUnicodeMS'" font-size="9.84">5</tspan></text>
<text transform="matrix(1 0 0 1 623.2871 209.0791)" font-family="'ArialUnicodeMS'" font-size="9.84">米）</text>
<text transform="matrix(1 0 0 1 359.9888 281.5605)" font-family="'ArialUnicodeMS'" font-size="9.84">以上线缆长度有</text>
<text transform="matrix(1 0 0 1 428.8682 281.5605)" font-family="'ArialUnicodeMS'" font-size="9.84">3</text>
<text transform="matrix(1 0 0 1 434.1523 281.5605)" font-family="'ArialUnicodeMS'" font-size="9.84">种规格</text>
<text transform="matrix(1 0 0 1 359.7427 294.52)" font-family="'ArialUnicodeMS'" font-size="9.84">可选配分别是：</text>
<text transform="matrix(1 0 0 1 360.2246 306.5146)" font-family="'ArialUnicodeMS'" font-size="9.84">6</text>
<text transform="matrix(1 0 0 1 365.7251 306.5146)" font-family="'ArialUnicodeMS'" font-size="9.84">m</text>
<text transform="matrix(1 0 0 1 373.9023 306.5146)" font-family="'ArialUnicodeMS'" font-size="9.84">、</text>
<text transform="matrix(1 0 0 1 383.9785 306.5146)" font-family="'ArialUnicodeMS'" font-size="9.84">1</text>
<text transform="matrix(1 0 0 1 389.2627 306.5146)" font-family="'ArialUnicodeMS'" font-size="9.84">0</text>
<text transform="matrix(1 0 0 1 394.7827 306.5146)" font-family="'ArialUnicodeMS'" font-size="9.84">m</text>
<text transform="matrix(1 0 0 1 402.9404 306.5146)" font-family="'ArialUnicodeMS'" font-size="9.84">、</text>
<text transform="matrix(1 0 0 1 413.0166 306.5146)" font-family="'ArialUnicodeMS'" font-size="9.84">1</text>
<text transform="matrix(1 0 0 1 418.3003 306.5146)" font-family="'ArialUnicodeMS'" font-size="9.84">5</text>
<text transform="matrix(1 0 0 1 423.5742 306.5146)" font-family="'ArialUnicodeMS'" font-size="9.84">m</text>
<line fill="none" stroke="#000000" stroke-width="0.24" stroke-miterlimit="2" x1="546.96" y1="211" x2="665.04" y2="211"/>
<text transform="matrix(1 0 0 1 494.4004 386.6797)"><tspan x="0" y="0" font-family="'ArialUnicodeMS'" font-size="9.84">P</tspan><tspan x="6.505" y="0" font-family="'ArialUnicodeMS'" font-size="9.84">E</tspan></text>
<text transform="matrix(1 0 0 1 507.3896 386.6797)" font-family="'ArialUnicodeMS'" font-size="9.84">T</text>
<text transform="matrix(1 0 0 1 513.3623 386.6797)" font-family="'ArialUnicodeMS'" font-size="9.84">机架</text>
<text transform="matrix(1 0 0 1 549.1211 375.875)" font-family="'ArialUnicodeMS'" font-size="9.84">电</text>
<text transform="matrix(1 0 0 1 559.1973 375.875)" font-family="'ArialUnicodeMS'" font-size="9.84">缆</text>
<text transform="matrix(1 0 0 1 569.0371 375.875)"><tspan x="0" y="0" font-family="'ArialUnicodeMS'" font-size="9.84">1</tspan><tspan x="5.286" y="0" font-family="'ArialUnicodeMS'" font-size="9.84">5</tspan></text>
<text transform="matrix(1 0 0 1 579.6055 375.875)" font-family="'ArialUnicodeMS'" font-size="9.84"> </text>
<text transform="matrix(1 0 0 1 582.4785 375.875)" font-family="'ArialUnicodeMS'" font-size="9.84"> </text>
<text transform="matrix(1 0 0 1 585.1348 375.875)" font-family="'ArialUnicodeMS'" font-size="9.84">以太</text>
<text transform="matrix(1 0 0 1 604.8154 375.875)" font-family="'ArialUnicodeMS'" font-size="9.84">网</text>
<text transform="matrix(1 0 0 1 614.8916 375.875)" font-family="'ArialUnicodeMS'" font-size="9.84">（</text>
<text transform="matrix(1 0 0 1 624.7314 375.875)"><tspan x="0" y="0" font-family="'ArialUnicodeMS'" font-size="9.84">2</tspan><tspan x="5.286" y="0" font-family="'ArialUnicodeMS'" font-size="9.84">5</tspan></text>
<text transform="matrix(1 0 0 1 635.2998 375.875)" font-family="'ArialUnicodeMS'" font-size="9.84">米）</text>
<text transform="matrix(1 0 0 1 358.3232 491.3184)" font-family="'ArialUnicodeMS'" font-size="9.84">电</text>
<text transform="matrix(1 0 0 1 368.3994 491.3184)" font-family="'ArialUnicodeMS'" font-size="9.84">缆</text>
<text transform="matrix(1 0 0 1 378.2393 491.3184)"><tspan x="0" y="0" font-family="'ArialUnicodeMS'" font-size="9.84">1</tspan><tspan x="5.286" y="0" font-family="'ArialUnicodeMS'" font-size="9.84">0</tspan></text>
<text transform="matrix(1 0 0 1 388.8071 491.3184)" font-family="'ArialUnicodeMS'" font-size="9.84"> </text>
<text transform="matrix(1 0 0 1 391.4644 491.3184)" font-family="'ArialUnicodeMS'" font-size="9.84">控制台电源</text>
<rect x="292.8" y="16.84" fill="none" stroke="#000000" stroke-width="0.24" stroke-miterlimit="2" width="66.96" height="545.521"/>
<text transform="matrix(1 0 0 1 124.0801 223)" font-family="'ArialUnicodeMS'" font-size="9.84">配电箱</text>
<rect x="110.64" y="133.48" fill="none" stroke="#000000" stroke-width="0.24" stroke-miterlimit="2" width="66.96" height="168.96"/>
<text transform="matrix(1 0 0 1 177.6001 169.2402)" font-family="'ArialUnicodeMS'" font-size="9.84">电</text>
<text transform="matrix(1 0 0 1 187.6763 169.2402)" font-family="'ArialUnicodeMS'" font-size="9.84">缆</text>
<text transform="matrix(1 0 0 1 197.5161 169.2402)" font-family="'ArialUnicodeMS'" font-size="9.84">1</text>
<text transform="matrix(1 0 0 1 202.8003 169.2402)"><tspan x="0" y="0" font-family="'ArialUnicodeMS'" font-size="9.84"> </tspan><tspan x="2.665" y="0" font-family="'ArialUnicodeMS'" font-size="9.84"> </tspan></text>
<text transform="matrix(1 0 0 1 208.1138 169.2402)" font-family="'ArialUnicodeMS'" font-size="9.84">电源线</text>
<line fill="none" stroke="#000000" stroke-width="0.24" stroke-miterlimit="2" x1="177.6" y1="171.88" x2="292.8" y2="171.88"/>
<text transform="matrix(1 0 0 1 360.7202 375.8799)" font-family="'ArialUnicodeMS'" font-size="9.84">电</text>
<text transform="matrix(1 0 0 1 370.7964 375.8799)" font-family="'ArialUnicodeMS'" font-size="9.84">缆</text>
<text transform="matrix(1 0 0 1 380.6362 375.8799)" font-family="'ArialUnicodeMS'" font-size="9.84">9</text>
<text transform="matrix(1 0 0 1 385.9204 375.8799)" font-family="'ArialUnicodeMS'" font-size="9.84"> </text>
<text transform="matrix(1 0 0 1 388.5576 375.8799)"><tspan x="0" y="0" font-family="'ArialUnicodeMS'" font-size="9.84">P</tspan><tspan x="6.504" y="0" font-family="'ArialUnicodeMS'" font-size="9.84">E</tspan></text>
<text transform="matrix(1 0 0 1 401.5464 375.8799)" font-family="'ArialUnicodeMS'" font-size="9.84">T</text>
<text transform="matrix(1 0 0 1 407.519 375.8799)" font-family="'ArialUnicodeMS'" font-size="9.84">电源</text>
<path fill="none" stroke="#000000" stroke-width="0.24" stroke-miterlimit="2" d="M546.96,249.16h118.08 M359.76,494.92h305.28
	 M546.96,377.8h117.6"/>
<text transform="matrix(1 0 0 1 547.1543 228.2329)" font-family="'ArialUnicodeMS'" font-size="9.84">电缆13 </text>
<text transform="matrix(1 0 0 1 580.4629 228.2329)" font-family="'ArialUnicodeMS'" font-size="9.84"> </text>
<text transform="matrix(1 0 0 1 583.1094 228.2329)" font-family="'ArialUnicodeMS'" font-size="9.84">以太网（25米）</text>
<text transform="matrix(1 0 0 1 547.1543 246.9487)" font-family="'ArialUnicodeMS'" font-size="9.84">电缆14 </text>
<text transform="matrix(1 0 0 1 580.2363 246.9487)" font-family="'ArialUnicodeMS'" font-size="9.84"> </text>
<text transform="matrix(1 0 0 1 583.3555 246.9487)" font-family="'ArialUnicodeMS'" font-size="9.84">E</text>
<text transform="matrix(1 0 0 1 589.9189 246.9487)" font-family="'ArialUnicodeMS'" font-size="9.84">-</text>
<text transform="matrix(1 0 0 1 593.1953 246.9487)" font-family="'ArialUnicodeMS'" font-size="9.84">STOP（20米）</text>
<rect x="480" y="133.72" fill="none" stroke="#000000" stroke-width="0.24" stroke-miterlimit="2" width="66.96" height="333.36"/>
<line fill="none" stroke="#000000" stroke-width="0.24" stroke-miterlimit="2" x1="480" y1="300.52" x2="546.96" y2="300.52"/>
<rect x="490.8" y="70.6" fill="none" stroke="#000000" stroke-width="0.24" stroke-miterlimit="2" width="45.12" height="63.12"/>
<rect x="665.04" y="197.8" fill="none" stroke="#000000" stroke-width="0.24" stroke-miterlimit="2" width="66.24" height="365.04"/>
<line fill="none" stroke="#000000" stroke-width="0.24" stroke-miterlimit="2" x1="546.96" y1="397" x2="665.04" y2="397"/>
<text transform="matrix(1 0 0 1 549.1201 393.8799)" font-family="'ArialUnicodeMS'" font-size="9.84">电</text>
<text transform="matrix(1 0 0 1 559.1963 393.8799)" font-family="'ArialUnicodeMS'" font-size="9.84">缆</text>
<text transform="matrix(1 0 0 1 569.0361 393.8799)"><tspan x="0" y="0" font-family="'ArialUnicodeMS'" font-size="9.84">1</tspan><tspan x="5.286" y="0" font-family="'ArialUnicodeMS'" font-size="9.84">6</tspan></text>
<text transform="matrix(1 0 0 1 579.6045 393.8799)" font-family="'ArialUnicodeMS'" font-size="9.84"> </text>
<text transform="matrix(1 0 0 1 582.4775 393.8799)" font-family="'ArialUnicodeMS'" font-size="9.84"> </text>
<text transform="matrix(1 0 0 1 585.1348 393.8799)" font-family="'ArialUnicodeMS'" font-size="9.84">光纤</text>
<text transform="matrix(1 0 0 1 604.8145 393.8799)" font-family="'ArialUnicodeMS'" font-size="9.84">（</text>
<text transform="matrix(1 0 0 1 614.8906 393.8799)"><tspan x="0" y="0" font-family="'ArialUnicodeMS'" font-size="9.84">2</tspan><tspan x="5.286" y="0" font-family="'ArialUnicodeMS'" font-size="9.84">8</tspan></text>
<text transform="matrix(1 0 0 1 625.459 393.8799)" font-family="'ArialUnicodeMS'" font-size="9.84">米）</text>
<path fill="none" stroke="#000000" stroke-width="0.24" stroke-miterlimit="2" d="M612.24,184.6h-65.28 M612.24,160.36h-65.28"/>
<text transform="matrix(1 0 0 1 476.4004 491.0801)" font-family="'ArialUnicodeMS'" font-size="9.84"> </text>
<text transform="matrix(1 0 0 1 479.2734 491.0801)"><tspan x="0" y="0" font-family="'ArialUnicodeMS'" font-size="9.84"> </tspan><tspan x="2.664" y="0" font-family="'ArialUnicodeMS'" font-size="9.84"> </tspan></text>
<text transform="matrix(1 0 0 1 484.5869 491.0801)" font-family="'ArialUnicodeMS'" font-size="9.84"> </text>
<text transform="matrix(1 0 0 1 487.4512 491.0801)" font-family="'ArialUnicodeMS'" font-size="9.84"> </text>
<text transform="matrix(1 0 0 1 490.1074 491.0801)" font-family="'ArialUnicodeMS'" font-size="9.84">线</text>
<text transform="matrix(1 0 0 1 499.9473 491.0801)" font-family="'ArialUnicodeMS'" font-size="9.84">缆</text>
<text transform="matrix(1 0 0 1 510.0234 491.0801)" font-family="'ArialUnicodeMS'" font-size="9.84">长度 </text>
<text transform="matrix(1 0 0 1 532.5576 491.0801)"><tspan x="0" y="0" font-family="'ArialUnicodeMS'" font-size="9.84">2</tspan><tspan x="5.286" y="0" font-family="'ArialUnicodeMS'" font-size="9.84">0</tspan></text>
<text transform="matrix(1 0 0 1 543.125 491.0801)" font-family="'ArialUnicodeMS'" font-size="9.84">m</text>
<text transform="matrix(1 0 0 1 476.4004 509.5596)" font-family="'ArialUnicodeMS'" font-size="9.84"> </text>
<text transform="matrix(1 0 0 1 479.2734 509.5596)"><tspan x="0" y="0" font-family="'ArialUnicodeMS'" font-size="9.84"> </tspan><tspan x="2.664" y="0" font-family="'ArialUnicodeMS'" font-size="9.84"> </tspan></text>
<text transform="matrix(1 0 0 1 484.5869 509.5596)" font-family="'ArialUnicodeMS'" font-size="9.84"> </text>
<text transform="matrix(1 0 0 1 487.4512 509.5596)" font-family="'ArialUnicodeMS'" font-size="9.84"> </text>
<text transform="matrix(1 0 0 1 490.1074 509.5596)" font-family="'ArialUnicodeMS'" font-size="9.84">线</text>
<text transform="matrix(1 0 0 1 499.9473 509.5596)" font-family="'ArialUnicodeMS'" font-size="9.84">缆</text>
<text transform="matrix(1 0 0 1 510.0234 509.5596)" font-family="'ArialUnicodeMS'" font-size="9.84">长度 </text>
<text transform="matrix(1 0 0 1 532.5576 509.5596)"><tspan x="0" y="0" font-family="'ArialUnicodeMS'" font-size="9.84">2</tspan><tspan x="5.286" y="0" font-family="'ArialUnicodeMS'" font-size="9.84">5</tspan></text>
<text transform="matrix(1 0 0 1 543.125 509.5596)" font-family="'ArialUnicodeMS'" font-size="9.84">m</text>
<text transform="matrix(1 0 0 1 95.2773 330.5205)" font-family="'ArialUnicodeMS'" font-size="9.84">注：</text>
<text transform="matrix(1 0 0 1 94.7954 343.7158)" font-family="'ArialUnicodeMS'" font-size="9.84">1</text>
<text transform="matrix(1 0 0 1 100.0796 343.7158)" font-family="'ArialUnicodeMS'" font-size="9.84">、各线缆长度的连接起点和终点均是各子</text>
<text transform="matrix(1 0 0 1 95.9956 356.9121)" font-family="'ArialUnicodeMS'" font-size="9.84"> </text>
<text transform="matrix(1 0 0 1 98.8691 356.9121)"><tspan x="0" y="0" font-family="'ArialUnicodeMS'" font-size="9.84">   </tspan><tspan x="7.995" y="0" font-family="'ArialUnicodeMS'" font-size="9.84"> </tspan></text>
<text transform="matrix(1 0 0 1 109.4961 356.9121)" font-family="'ArialUnicodeMS'" font-size="9.84">系统的接线端子，并非各子系统出线口。</text>
<text transform="matrix(1 0 0 1 95.5137 369.8711)" font-family="'ArialUnicodeMS'" font-size="9.84">2</text>
<text transform="matrix(1 0 0 1 101.0142 369.8711)" font-family="'ArialUnicodeMS'" font-size="9.84">、线缆</text>
<text transform="matrix(1 0 0 1 130.5342 369.8711)" font-family="'ArialUnicodeMS'" font-size="9.84">1</text>
<text transform="matrix(1 0 0 1 135.8184 369.8711)" font-family="'ArialUnicodeMS'" font-size="9.84">和线缆</text>
<text transform="matrix(1 0 0 1 165.3384 369.8711)" font-family="'ArialUnicodeMS'" font-size="9.84">4</text>
<text transform="matrix(1 0 0 1 170.6226 369.8711)" font-family="'ArialUnicodeMS'" font-size="9.84">长</text>
<text transform="matrix(1 0 0 1 180.6987 369.8711)" font-family="'ArialUnicodeMS'" font-size="9.84">度，需要根据现场实际</text>
<text transform="matrix(1 0 0 1 106.8003 383.0664)" font-family="'ArialUnicodeMS'" font-size="9.84"> </text>
<text transform="matrix(1 0 0 1 109.457 383.0664)" font-family="'ArialUnicodeMS'" font-size="9.84">尺寸进行调整。</text>
<text transform="matrix(1 0 0 1 615.5869 162.0303)" font-family="'ArialUnicodeMS'" font-size="9.84">至门联锁机构</text>
<text transform="matrix(1 0 0 1 165.5845 47.3057)" font-family="'ArialUnicodeMS'" font-size="9.84">至放线指示灯</text>
<path fill="none" stroke="#000000" stroke-width="0.24" stroke-miterlimit="2" d="M241.68,37l-14.16,6.48l14.16,6.72 M604.8,156.28
	l7.44,4.08l-7.44,4.08 M292.8,43.48h-65.28 M612.24,184.6H731.52V43.48H359.76"/>
<text transform="matrix(1 0 0 1 547.6797 181.96)" font-family="'ArialUnicodeMS'" font-size="9.84">电</text>
<text transform="matrix(1 0 0 1 557.7559 181.96)" font-family="'ArialUnicodeMS'" font-size="9.84">缆</text>
<text transform="matrix(1 0 0 1 567.5957 181.96)" font-family="'ArialUnicodeMS'" font-size="9.84">2</text>
<text transform="matrix(1 0 0 1 572.8799 181.96)"><tspan x="0" y="0" font-family="'ArialUnicodeMS'" font-size="9.84"> </tspan><tspan x="2.664" y="0" font-family="'ArialUnicodeMS'" font-size="9.84"> </tspan></text>
<text transform="matrix(1 0 0 1 578.1934 181.96)" font-family="'ArialUnicodeMS'" font-size="9.84">放</text>
<text transform="matrix(1 0 0 1 588.2598 181.96)" font-family="'ArialUnicodeMS'" font-size="9.84">线指示灯</text>
<text transform="matrix(1 0 0 1 627.6201 181.96)" font-family="'ArialUnicodeMS'" font-size="9.84">控</text>
<text transform="matrix(1 0 0 1 637.6963 181.96)" font-family="'ArialUnicodeMS'" font-size="9.84">制线（</text>
<text transform="matrix(1 0 0 1 667.2158 181.96)"><tspan x="0" y="0" font-family="'ArialUnicodeMS'" font-size="9.84">1</tspan><tspan x="5.286" y="0" font-family="'ArialUnicodeMS'" font-size="9.84">5</tspan></text>
<text transform="matrix(1 0 0 1 677.7842 181.96)" font-family="'ArialUnicodeMS'" font-size="9.84">米）</text>
<text transform="matrix(1 0 0 1 144.0034 64.1162)" font-family="'ArialUnicodeMS'" font-size="9.84">放</text>
<text transform="matrix(1 0 0 1 154.0796 64.1162)" font-family="'ArialUnicodeMS'" font-size="9.84">线指示灯控制线（</text>
<text transform="matrix(1 0 0 1 232.7998 64.1162)"><tspan x="0" y="0" font-family="'ArialUnicodeMS'" font-size="9.84">1</tspan><tspan x="5.286" y="0" font-family="'ArialUnicodeMS'" font-size="9.84">5</tspan></text>
<text transform="matrix(1 0 0 1 243.3677 64.1162)" font-family="'ArialUnicodeMS'" font-size="9.84">米）</text>
<line fill="none" stroke="#000000" stroke-width="0.24" stroke-miterlimit="2" x1="359.76" y1="267.64" x2="480" y2="267.64"/>
<text transform="matrix(1 0 0 1 360.3198 169.9448)" font-family="'ArialUnicodeMS'" font-size="9.84">电缆4 </text>
<text transform="matrix(1 0 0 1 387.9307 169.9448)" font-family="'ArialUnicodeMS'" font-size="9.84"> </text>
<text transform="matrix(1 0 0 1 390.5776 169.9448)" font-family="'ArialUnicodeMS'" font-size="9.84">高压电源</text>
<text transform="matrix(1 0 0 1 360.3198 188.2373)" font-family="'ArialUnicodeMS'" font-size="9.84">电缆5 </text>
<text transform="matrix(1 0 0 1 387.9307 188.2373)" font-family="'ArialUnicodeMS'" font-size="9.84"> </text>
<text transform="matrix(1 0 0 1 390.5776 188.2373)" font-family="'ArialUnicodeMS'" font-size="9.84">主驱动电源</text>
<text transform="matrix(1 0 0 1 360.3198 207.0513)" font-family="'ArialUnicodeMS'" font-size="9.84">电缆6 </text>
<text transform="matrix(1 0 0 1 387.9307 207.0513)" font-family="'ArialUnicodeMS'" font-size="9.84"> </text>
<text transform="matrix(1 0 0 1 390.5781 207.0513)" font-family="'ArialUnicodeMS'" font-size="9.84">机架辅助电源</text>
<text transform="matrix(1 0 0 1 360.3198 225.8657)" font-family="'ArialUnicodeMS'" font-size="9.84">电缆7 </text>
<text transform="matrix(1 0 0 1 387.9312 225.8657)" font-family="'ArialUnicodeMS'" font-size="9.84"> </text>
<text transform="matrix(1 0 0 1 390.5781 225.8657)" font-family="'ArialUnicodeMS'" font-size="9.84">检查床电源</text>
<text transform="matrix(1 0 0 1 360.3198 244.6797)" font-family="'ArialUnicodeMS'" font-size="9.84">电缆8</text>
<text transform="matrix(1 0 0 1 385.4707 244.6797)" font-family="'ArialUnicodeMS'" font-size="9.84"> </text>
<text transform="matrix(1 0 0 1 388.167 244.6797)" font-family="'ArialUnicodeMS'" font-size="9.84">E</text>
<text transform="matrix(1 0 0 1 394.7305 244.6797)" font-family="'ArialUnicodeMS'" font-size="9.84">-</text>
<text transform="matrix(1 0 0 1 398.0073 244.6797)" font-family="'ArialUnicodeMS'" font-size="9.84">STOP控制线</text>
<text transform="matrix(1 0 0 1 360.3198 264.0249)" font-family="'ArialUnicodeMS'" font-size="9.84">电缆17</text>
<text transform="matrix(1 0 0 1 390.9419 264.0249)" font-family="'ArialUnicodeMS'" font-size="9.84"> </text>
<text transform="matrix(1 0 0 1 393.6382 264.0249)" font-family="'ArialUnicodeMS'" font-size="9.84">PSC监控线</text>
<text transform="matrix(1 0 0 1 547.6836 151.0029)" font-family="'ArialUnicodeMS'" font-size="9.84">电</text>
<text transform="matrix(1 0 0 1 557.7598 151.0029)" font-family="'ArialUnicodeMS'" font-size="9.84">缆</text>
<text transform="matrix(1 0 0 1 567.5996 151.0029)" font-family="'ArialUnicodeMS'" font-size="9.84">3</text>
<text transform="matrix(1 0 0 1 573.0996 151.0029)" font-family="'ArialUnicodeMS'" font-size="9.84"> </text>
<text transform="matrix(1 0 0 1 575.7568 151.0029)" font-family="'ArialUnicodeMS'" font-size="9.84"> </text>
<text transform="matrix(1 0 0 1 578.6299 151.0029)"><tspan x="0" y="0" font-family="'ArialUnicodeMS'" font-size="9.84">2</tspan><tspan x="5.286" y="0" font-family="'ArialUnicodeMS'" font-size="9.84">5</tspan></text>
<text transform="matrix(1 0 0 1 589.1982 151.0029)" font-family="'ArialUnicodeMS'" font-size="9.84">米</text>
<line fill="none" stroke="#000000" stroke-width="0.24" stroke-miterlimit="2" x1="359.76" y1="530.68" x2="665.04" y2="530.68"/>
<text transform="matrix(1 0 0 1 358.3198 527.7998)" font-family="'ArialUnicodeMS'" font-size="9.84">电</text>
<text transform="matrix(1 0 0 1 368.396 527.7998)" font-family="'ArialUnicodeMS'" font-size="9.84">缆</text>
<text transform="matrix(1 0 0 1 378.2358 527.7998)"><tspan x="0" y="0" font-family="'ArialUnicodeMS'" font-size="9.84">1</tspan><tspan x="5.286" y="0" font-family="'ArialUnicodeMS'" font-size="9.84">8</tspan></text>
<text transform="matrix(1 0 0 1 388.8042 527.7998)" font-family="'ArialUnicodeMS'" font-size="9.84"> </text>
<text transform="matrix(1 0 0 1 391.4414 527.7998)"><tspan x="0" y="0" font-family="'ArialUnicodeMS'" font-size="9.84">P</tspan><tspan x="6.504" y="0" font-family="'ArialUnicodeMS'" font-size="9.84">E</tspan></text>
<text transform="matrix(1 0 0 1 404.4302 527.7998)" font-family="'ArialUnicodeMS'" font-size="9.84">T</text>
<text transform="matrix(1 0 0 1 410.6392 527.7998)" font-family="'ArialUnicodeMS'" font-size="9.84">重建机保护接地</text>
<text transform="matrix(1 0 0 1 476.3994 527.5635)" font-family="'ArialUnicodeMS'" font-size="9.84"> </text>
<text transform="matrix(1 0 0 1 479.2734 527.5635)"><tspan x="0" y="0" font-family="'ArialUnicodeMS'" font-size="9.84"> </tspan><tspan x="2.664" y="0" font-family="'ArialUnicodeMS'" font-size="9.84"> </tspan></text>
<text transform="matrix(1 0 0 1 484.5869 527.5635)" font-family="'ArialUnicodeMS'" font-size="9.84"> </text>
<text transform="matrix(1 0 0 1 487.4502 527.5635)" font-family="'ArialUnicodeMS'" font-size="9.84"> </text>
<text transform="matrix(1 0 0 1 490.1074 527.5635)" font-family="'ArialUnicodeMS'" font-size="9.84">线</text>
<text transform="matrix(1 0 0 1 499.9473 527.5635)" font-family="'ArialUnicodeMS'" font-size="9.84">缆</text>
<text transform="matrix(1 0 0 1 510.0234 527.5635)" font-family="'ArialUnicodeMS'" font-size="9.84">长度 </text>
<text transform="matrix(1 0 0 1 532.5566 527.5635)"><tspan x="0" y="0" font-family="'ArialUnicodeMS'" font-size="9.84">2</tspan><tspan x="5.286" y="0" font-family="'ArialUnicodeMS'" font-size="9.84">5</tspan></text>
<text transform="matrix(1 0 0 1 543.125 527.5635)" font-family="'ArialUnicodeMS'" font-size="9.84">m</text>
<text transform="matrix(1 0 0 1 183.6006 184.1279)" font-family="'ArialUnicodeMS'" font-size="9.84">长度有</text>
<text transform="matrix(1 0 0 1 213.1206 184.1279)" font-family="'ArialUnicodeMS'" font-size="9.84">3</text>
<text transform="matrix(1 0 0 1 218.4048 184.1279)" font-family="'ArialUnicodeMS'" font-size="9.84">种规格可选配</text>
<text transform="matrix(1 0 0 1 183.6006 197.0874)" font-family="'ArialUnicodeMS'" font-size="9.84">分</text>
<text transform="matrix(1 0 0 1 193.6768 197.0874)" font-family="'ArialUnicodeMS'" font-size="9.84">别是</text>
<text transform="matrix(1 0 0 1 213.3569 197.0874)" font-family="'ArialUnicodeMS'" font-size="9.84">：</text>
<text transform="matrix(1 0 0 1 223.4233 197.0874)" font-family="'ArialUnicodeMS'" font-size="9.84">4</text>
<text transform="matrix(1 0 0 1 228.7173 197.0874)" font-family="'ArialUnicodeMS'" font-size="9.84">m</text>
<text transform="matrix(1 0 0 1 236.8745 197.0874)" font-family="'ArialUnicodeMS'" font-size="9.84">、</text>
<text transform="matrix(1 0 0 1 246.9507 197.0874)" font-family="'ArialUnicodeMS'" font-size="9.84">1</text>
<text transform="matrix(1 0 0 1 252.2349 197.0874)" font-family="'ArialUnicodeMS'" font-size="9.84">0</text>
<text transform="matrix(1 0 0 1 257.5088 197.0874)" font-family="'ArialUnicodeMS'" font-size="9.84">m</text>
<text transform="matrix(1 0 0 1 265.9121 197.0874)" font-family="'ArialUnicodeMS'" font-size="9.84">、</text>
<text transform="matrix(1 0 0 1 275.7524 197.0874)" font-family="'ArialUnicodeMS'" font-size="9.84">1</text>
<text transform="matrix(1 0 0 1 281.0366 197.0874)" font-family="'ArialUnicodeMS'" font-size="9.84">5</text>
<text transform="matrix(1 0 0 1 286.3105 197.0874)" font-family="'ArialUnicodeMS'" font-size="9.84">m</text>
<text transform="matrix(1 0 0 1 359.9927 390.2861)" font-family="'ArialUnicodeMS'" font-size="9.84">长度有</text>
<text transform="matrix(1 0 0 1 389.5127 390.2861)" font-family="'ArialUnicodeMS'" font-size="9.84">3</text>
<text transform="matrix(1 0 0 1 394.7969 390.2861)" font-family="'ArialUnicodeMS'" font-size="9.84">种规格可选配分别</text>
<text transform="matrix(1 0 0 1 359.9927 403.0088)" font-family="'ArialUnicodeMS'" font-size="9.84">是</text>
<text transform="matrix(1 0 0 1 370.0688 403.0088)" font-family="'ArialUnicodeMS'" font-size="9.84">：6</text>
<text transform="matrix(1 0 0 1 385.4292 403.0088)" font-family="'ArialUnicodeMS'" font-size="9.84">m</text>
<text transform="matrix(1 0 0 1 393.5864 403.0088)" font-family="'ArialUnicodeMS'" font-size="9.84">、</text>
<text transform="matrix(1 0 0 1 403.6626 403.0088)" font-family="'ArialUnicodeMS'" font-size="9.84">1</text>
<text transform="matrix(1 0 0 1 408.9468 403.0088)" font-family="'ArialUnicodeMS'" font-size="9.84">0</text>
<text transform="matrix(1 0 0 1 414.4668 403.0088)" font-family="'ArialUnicodeMS'" font-size="9.84">m</text>
<text transform="matrix(1 0 0 1 422.624 403.0088)" font-family="'ArialUnicodeMS'" font-size="9.84">、</text>
<text transform="matrix(1 0 0 1 432.4639 403.0088)" font-family="'ArialUnicodeMS'" font-size="9.84">1</text>
<text transform="matrix(1 0 0 1 437.748 403.0088)" font-family="'ArialUnicodeMS'" font-size="9.84">5</text>
<text transform="matrix(1 0 0 1 443.0225 403.0088)" font-family="'ArialUnicodeMS'" font-size="9.84">m</text>
</svg>
