<?xml version="1.0" encoding="utf-8"?>
<!-- Generator: Adobe Illustrator 16.0.0, SVG Export Plug-In . SVG Version: 6.00 Build 0)  -->
<!DOCTYPE svg PUBLIC "-//W3C//DTD SVG 1.1//EN" "http://www.w3.org/Graphics/SVG/1.1/DTD/svg11.dtd">
<svg version="1.1" id="图层_1" xmlns="http://www.w3.org/2000/svg" xmlns:xlink="http://www.w3.org/1999/xlink" x="0px" y="0px"
	 width="160px" height="43.53px" viewBox="0 0 160 43.53" enable-background="new 0 0 160 43.53" xml:space="preserve">
<g>
	<defs>
		<rect id="SVGID_1_" x="-525.765" y="-461.528" width="1247.24" height="807.874"/>
	</defs>
	<clipPath id="SVGID_2_">
		<use xlink:href="#SVGID_1_"  overflow="visible"/>
	</clipPath>
	<rect x="140.021" y="8.319" clip-path="url(#SVGID_2_)" fill="#00485E" width="10.174" height="8.629"/>
	<g clip-path="url(#SVGID_2_)">
		<defs>
			<rect id="SVGID_3_" x="-525.765" y="-461.528" width="1247.244" height="807.874"/>
		</defs>
		<clipPath id="SVGID_4_">
			<use xlink:href="#SVGID_3_"  overflow="visible"/>
		</clipPath>
		<path clip-path="url(#SVGID_4_)" fill="#00485E" d="M140.021,34.161c2.883-0.254,5.426-1.355,7.27-2.988
			c1.801-1.611,2.904-3.732,2.904-6.063V19.47h-10.174V34.161z"/>
		<path clip-path="url(#SVGID_4_)" fill="#00485E" d="M127.321,8.319V25.11c0,2.33,1.102,4.451,2.906,6.064
			c1.822,1.631,4.387,2.732,7.291,2.986V8.319H127.321z"/>
		<polygon clip-path="url(#SVGID_4_)" fill="#00485E" points="43.426,20.003 47.059,20.003 47.059,10.159 51.002,10.159 
			51.002,8.319 39.531,8.319 39.531,10.159 43.426,10.159 		"/>
		<path clip-path="url(#SVGID_4_)" fill="#00485E" d="M13.389,20.003c4.35,0,4.35-2.602,4.35-3.727V8.319h-3.607v8.197
			c0,0.836-0.168,1.625-1.173,1.625H9.996c-0.979,0-1.146-0.789-1.146-1.625V8.319H5.241v7.957c0,1.125,0,3.727,4.35,3.727H13.389z"
			/>
		<rect x="34.394" y="8.319" clip-path="url(#SVGID_4_)" fill="#00485E" width="3.513" height="11.684"/>
		<path clip-path="url(#SVGID_4_)" fill="#00485E" d="M73.576,8.319H65.41v11.684h8.166c4.324,0,4.348-2.602,4.348-3.727v-4.23
			C77.923,10.925,77.9,8.319,73.576,8.319 M74.293,16.517c0,0.836-0.168,1.625-1.147,1.625h-4.133v-7.98h4.133
			c0.979,0,1.147,0.811,1.147,1.646V16.517z"/>
		<polygon clip-path="url(#SVGID_4_)" fill="#00485E" points="63.212,20.003 63.212,18.142 56.45,18.142 56.45,15.081 
			62.496,15.081 62.496,13.218 56.45,13.218 56.45,10.159 62.9,10.159 62.9,8.319 52.818,8.319 52.818,20.003 		"/>
		<polygon clip-path="url(#SVGID_4_)" fill-rule="evenodd" clip-rule="evenodd" fill="#00485E" points="24.477,8.319 29.184,15.894 
			29.184,8.319 31.981,8.319 31.981,20.003 27.656,20.003 22.828,12.216 22.828,20.003 20.032,20.003 20.032,8.319 		"/>
		<path clip-path="url(#SVGID_4_)" fill="#00485E" d="M69.784,24.726c-4.344,0-4.344,2.605-4.344,3.729v4.238
			c0,1.123,0,3.752,4.344,3.752h7.908v-7.025h-5.996v1.865h2.389v3.297h-3.871c-1.004,0-1.146-0.813-1.146-1.65v-4.717
			c0-0.834,0.143-1.648,1.146-1.648h7.479v-1.84H69.784z"/>
		<path clip-path="url(#SVGID_4_)" fill="#00485E" d="M104.905,24.726c-4.344,0-4.344,2.605-4.344,3.729v4.238
			c0,1.123,0,3.752,4.344,3.752h7.906v-7.025h-5.996v1.865h2.389v3.297h-3.871c-1.002,0-1.146-0.813-1.146-1.65v-4.717
			c0-0.834,0.145-1.648,1.146-1.648h7.479v-1.84H104.905z"/>
		<polygon clip-path="url(#SVGID_4_)" fill="#00485E" points="55.596,24.735 51.152,36.444 53.9,36.444 57.173,27.747 
			60.542,36.444 64.891,36.444 60.447,24.735 		"/>
		<polygon clip-path="url(#SVGID_4_)" fill-rule="evenodd" clip-rule="evenodd" fill="#00485E" points="34.425,24.735 
			38.796,24.735 42.023,32.19 45.536,24.735 49.836,24.735 49.836,36.444 46.3,36.444 46.3,28.655 42.644,36.444 40.184,36.444 
			36.837,28.632 36.837,36.444 34.425,36.444 		"/>
		<polygon clip-path="url(#SVGID_4_)" fill-rule="evenodd" clip-rule="evenodd" fill="#00485E" points="90.885,24.735 
			95.613,32.335 95.613,24.735 98.41,24.735 98.41,36.444 94.084,36.444 89.234,28.632 89.234,36.444 86.461,36.444 86.461,24.735 
					"/>
		<rect x="28.498" y="24.735" clip-path="url(#SVGID_4_)" fill="#00485E" width="3.514" height="11.709"/>
		<rect x="80.25" y="24.735" clip-path="url(#SVGID_4_)" fill="#00485E" width="3.488" height="11.709"/>
		<polygon clip-path="url(#SVGID_4_)" fill-rule="evenodd" clip-rule="evenodd" fill="#00485E" points="96.516,14.077 
			93.648,14.077 93.648,10.972 96.443,10.972 96.443,9.942 95.87,9.942 96.325,8.319 94.318,8.319 93.886,9.942 91.642,9.942 
			91.189,8.319 89.325,8.319 89.754,9.942 89.013,9.942 89.013,10.972 91.786,10.972 91.786,14.077 88.942,14.077 88.942,15.13 
			91.115,15.13 88.87,20.003 90.878,20.003 92.643,16.253 94.436,20.003 96.443,20.003 94.246,15.13 96.516,15.13 		"/>
		<path clip-path="url(#SVGID_4_)" fill-rule="evenodd" clip-rule="evenodd" fill="#00485E" d="M82.275,8.319v1.027h0.478v9.08
			l-0.431,0.049v1.074l4.159-0.525v0.979h1.813V9.347h0.407V8.319H82.275z M86.481,17.948l-1.913,0.24v-2.508h1.913V17.948z
			 M86.481,14.772h-1.913v-2.199h1.913V14.772z M86.481,11.665h-1.913V9.347h1.913V11.665z"/>
		<polygon clip-path="url(#SVGID_4_)" fill-rule="evenodd" clip-rule="evenodd" fill="#00485E" points="98.643,20.003 
			100.626,20.003 101.272,17.997 99.263,17.997 		"/>
		<polygon clip-path="url(#SVGID_4_)" fill-rule="evenodd" clip-rule="evenodd" fill="#00485E" points="105.216,17.997 
			105.884,20.003 107.819,20.003 107.222,17.997 		"/>
		<polygon clip-path="url(#SVGID_4_)" fill-rule="evenodd" clip-rule="evenodd" fill="#00485E" points="108.534,9.946 
			108.534,11.952 112.812,10.325 112.812,8.319 		"/>
		<polygon clip-path="url(#SVGID_4_)" fill-rule="evenodd" clip-rule="evenodd" fill="#00485E" points="108.534,16.009 
			112.812,14.384 112.812,12.327 108.534,13.978 		"/>
		<path clip-path="url(#SVGID_4_)" fill-rule="evenodd" clip-rule="evenodd" fill="#00485E" d="M104.187,12.382h3.488V8.319h-8.866
			v4.063h3.465v0.813h-3.631v0.979h9.176v-0.979h-3.633V12.382z M100.937,9.181h4.611v0.764h-4.611V9.181z M100.958,10.78h4.59
			v0.787h-4.59V10.78z"/>
		<polygon clip-path="url(#SVGID_4_)" fill-rule="evenodd" clip-rule="evenodd" fill="#00485E" points="108.534,20.003 
			112.812,18.403 112.812,16.396 108.534,18.044 		"/>
		<path clip-path="url(#SVGID_4_)" fill-rule="evenodd" clip-rule="evenodd" fill="#00485E" d="M105.548,16.636h-4.59v-0.955h4.59
			V16.636z M98.809,14.796v2.771h3.467v2.436h1.904v-2.436h3.494v-2.771H98.809z"/>
	</g>
</g>
</svg>
